<mxfile host="app.diagrams.net" modified="2023-10-18T06:48:41.439Z" agent="Mozilla/5.0 (X11; Ubuntu; Linux x86_64; rv:109.0) Gecko/20100101 Firefox/118.0" version="22.0.4" etag="aLhK1bfeiqb-OzNb-_pK" type="github">
  <diagram name="Page-1" id="LjC_DqbsQWkusT7YF0T1">
    <mxGraphModel>
      <root>
        <mxCell id="0" />
        <mxCell id="1" parent="0" />
      </root>
    </mxGraphModel>
  </diagram>
</mxfile>
